<?xml version="1.0" standalone="no"?><!DOCTYPE svg PUBLIC "-//W3C//DTD SVG 20010904//EN" "http://www.w3.org/TR/2001/REC-SVG-20010904/DTD/svg10.dtd"><svg version="1.0" xmlns="http://www.w3.org/2000/svg" width="512.000000pt" height="406.000000pt" viewBox="0 0 512.000000 406.000000" preserveAspectRatio="xMidYMid meet"><g transform="translate(0.000000,406.000000) scale(0.100000,-0.100000)" fill="#000000" stroke="none"><path d="M53 4045 c-17 -7 -36 -22 -42 -34 -7 -13 -11 -133 -11 -350 l0 -331
100 0 100 0 0 260 0 260 335 0 335 0 0 105 0 105 -392 0 c-311 -1 -400 -4
-425 -15z"/><path d="M4300 3955 l0 -105 310 0 310 0 0 -260 0 -260 100 0 100 0 0 331 c0
217 -4 337 -11 351 -24 45 -55 48 -444 48 l-365 0 0 -105z"/><path d="M740 2030 l0 -1350 180 0 180 0 0 1350 0 1350 -180 0 -180 0 0 -1350z"/><path d="M1380 2030 l0 -1350 55 0 55 0 0 1350 0 1350 -55 0 -55 0 0 -1350z"/><path d="M1770 2030 l0 -1350 180 0 180 0 0 1350 0 1350 -180 0 -180 0 0
-1350z"/><path d="M2410 2030 l0 -1350 95 0 95 0 0 1350 0 1350 -95 0 -95 0 0 -1350z"/><path d="M2890 2030 l0 -1350 125 0 125 0 0 1350 0 1350 -125 0 -125 0 0
-1350z"/><path d="M3430 2030 l0 -1350 175 0 175 0 0 1350 0 1350 -175 0 -175 0 0
-1350z"/><path d="M4060 2030 l0 -1350 160 0 160 0 0 1350 0 1350 -160 0 -160 0 0
-1350z"/><path d="M0 399 c0 -217 4 -337 11 -351 24 -45 54 -48 469 -48 l390 0 0 105 0
105 -335 0 -335 0 0 260 0 260 -100 0 -100 0 0 -331z"/><path d="M4920 470 l0 -260 -310 0 -310 0 0 -105 0 -105 365 0 c389 0 420 3
444 48 7 14 11 134 11 351 l0 331 -100 0 -100 0 0 -260z"/></g></svg>